<?xml version="1.0" encoding="UTF-8"?>
<svg id="Layer_1" xmlns="http://www.w3.org/2000/svg" version="1.1" viewBox="0 0 200 104.35">
  <path fill="#ffffff" d="M36.58,8.62C19.09,11.31,3.5,27.69.54,48.84c-3.35,24.01,9.32,38.41,25.91,35.87,4.35-.67,8.02-2.37,10.63-4.22l-.74,3.94c-1.59,8.52-5.59,12.76-10.65,13.54-2.12.33-4.32.15-6.72-.62l-1.77,5.34c4,1.77,8.07,1.97,12.11,1.35,8.8-1.35,14.49-7.4,16.62-19.12l5.49-30.24-10.01,1.54-3.31,18.21c-2.3,1.18-4.75,2.08-7.38,2.48-12.24,1.88-23.52-7.56-19.76-32.26,3.06-19.83,16.98-28.9,26.28-30.33,8.6-1.32,13.36,4.78,11.88,13.29-1.21,6.91-6.54,14.67-17.59,19.58l1.86,4.68c15-5.41,23.04-14.41,24.08-25.13,1.04-10.72-6.44-20.33-20.9-18.11Z"/>
  <path fill="#ffffff" d="M68.74,34c3.34-.51,5.97-3.61,5.96-7.02.11-3.33-2.52-5.62-5.86-5.1-3.34.51-5.97,3.61-5.97,6.92-.09,3.43,2.64,5.7,5.87,5.2Z"/>
  <path fill="#ffffff" d="M196.61,38.34c-4.02,8.17-12.54,14.04-18.5,14.96-4.55.7-7.34-.63-8.84-2.99,10.19-3.74,17.75-11.11,18.94-17.51,1.12-6.18-2.69-10.76-9.57-9.71-9.81,1.51-17.28,10.11-19.35,20.88-.28,1.47-.39,2.92-.35,4.33-4.43,5.71-10.82,9.61-15.59,10.34-4.55.7-7.34-.63-8.84-2.99,10.19-3.74,17.75-11.11,18.94-17.51,1.12-6.18-2.69-10.77-9.57-9.71-9.81,1.51-17.28,10.11-19.35,20.88-.28,1.5-.4,2.98-.35,4.42-3.44,4.69-8.37,9.14-11.99,9.7-1.31.2-2.45-.45-2.01-3l3.76-20.66,9.61-1.48,1.07-5.86-9.61,1.48,2.71-14.7-8.9,1.37-2.71,14.7-5.36.82-1.07,5.86,5.36-.82-2.34,12.93c-3.29,6.3-8.57,12.14-12.15,12.69-1.31.2-2.43-.35-2-2.9L100.03,0l-8.9,1.37-10.12,56.12c-3.29,6.27-8.54,12.06-12.1,12.61-1.31.2-2.45-.45-2.01-3l4.82-26.51-8.9,1.37-4.52,25.12c-1.52,8.31.71,12.72,6.07,11.9,5.46-.84,10.85-5.78,15.09-11.56-.25,5.87,2.04,8.93,6.52,8.24,5.47-.84,10.88-5.81,15.12-11.6-.26,5.89,2.03,8.96,6.52,8.27,5.81-.89,12.58-6.7,17.57-13.14,2.11,5.59,7.3,9.31,15.01,8.13,7.37-1.13,14.53-6.73,19.77-13.43,2.12,5.57,7.31,9.26,14.99,8.08,10.31-1.59,20.22-11.91,25.02-21.75l-3.39-1.86ZM133.51,47.22c.86-5.2,4.57-11.99,9.02-12.67,4.95-.76,5.41,10.97-9.26,16.54-.09-1.23.03-2.49.23-3.87ZM168.27,41.87c.86-5.2,4.57-11.99,9.02-12.67,4.95-.76,5.41,10.97-9.26,16.53-.09-1.23.03-2.49.23-3.87Z"/>
</svg>
